<svg width="322" height="27" viewBox="0 0 322 27" fill="none" xmlns="http://www.w3.org/2000/svg">
<path d="M15.741 1.101C14.784 1.101 13.827 1.563 12.21 3.939L7.128 11.331L3.3 11.298C2.673 11.298 2.013 11.727 2.013 12.42C2.013 13.179 2.442 13.575 3.3 13.575H5.577L2.145 18.558C1.617 19.416 0.891 20.373 1.683 21.033C2.409 21.627 3.333 21 4.059 19.812L8.25 13.575H15.048L14.322 19.449C14.19 20.604 14.52 21.396 15.213 21.396C15.972 21.396 16.467 20.901 16.632 19.416L18.348 4.467C18.513 3.147 18.282 1.101 15.741 1.101ZM9.735 11.331L13.794 5.325C14.883 3.675 15.279 3.411 15.642 3.411C16.434 3.411 16.236 3.741 15.312 11.331H9.735ZM21.4041 17.7C21.4041 19.878 22.2291 21.396 24.3411 21.396C26.2881 21.396 29.7531 16.809 33.2181 12.948L32.0301 18.063C31.4361 20.637 30.9411 21.33 28.6641 23.277C27.6741 24.135 26.8161 24.597 25.8591 24.63C25.1991 24.663 24.7041 25.026 24.7041 25.587C24.7041 26.313 25.2321 26.709 26.0901 26.709C27.0471 26.709 28.1031 26.445 33.4491 21.858L43.5471 13.212C44.2071 12.651 44.6031 11.991 44.2731 11.364C43.9761 10.803 43.2831 10.77 42.6891 11.265L34.2081 18.492L36.0891 11.199C36.3201 10.308 35.7261 9.615 34.8681 9.615C34.1091 9.615 33.4161 10.011 33.0531 10.374C26.3541 17.073 25.6281 18.954 24.7371 18.954C24.0441 18.954 23.7801 18.558 23.7801 17.766C23.7801 13.047 27.3771 8.658 32.8881 8.658C34.3731 8.658 35.3631 9.021 36.2211 9.384C36.5511 9.516 37.2441 9.417 37.5411 8.955C37.8711 8.46 37.9041 7.866 37.5411 7.569C36.4851 6.777 35.1321 6.381 32.9211 6.381C25.4961 6.381 21.4041 12.09 21.4041 17.7ZM39.6732 14.928C40.0362 15.786 40.8282 15.489 41.3562 15.027L48.8142 8.559L50.6292 9.351C51.1902 9.582 51.5862 10.11 51.0912 11.001L48.3522 15.984C46.6362 19.119 48.0222 21.429 50.9262 21.429C52.9062 21.429 54.7212 20.604 56.2392 19.284L63.3342 13.212C63.9942 12.651 64.3902 11.991 64.0602 11.364C63.7632 10.803 63.0702 10.77 62.4762 11.265L54.6222 17.964C53.5662 18.789 52.4112 19.416 51.3882 19.416C49.8702 19.416 49.4742 18.294 50.2992 16.776L53.6982 10.473C54.5562 8.889 52.8732 7.8 51.2232 7.14L49.4082 6.414L48.7482 3.147C48.5172 2.025 46.2072 2.223 46.5702 3.774L47.3622 7.173L40.5642 13.014C39.9372 13.542 39.4092 14.301 39.6732 14.928ZM75.5313 1.563C75.4653 1.233 75.0033 0.572999 74.2443 0.770999L66.5223 2.322C65.6973 2.487 65.4663 3.048 65.5323 3.444C65.5983 3.906 65.9283 4.401 66.8523 4.17L74.8053 2.949C75.6633 2.751 75.6303 2.058 75.5313 1.563ZM60.3843 17.7C60.3843 19.878 61.2093 21.396 63.3213 21.396C65.2683 21.396 68.8653 16.842 72.2313 12.915L71.1423 19.086C70.8783 20.538 71.0763 21.429 72.2643 21.429C73.4523 21.429 73.9803 21.033 75.3663 19.845L83.1213 13.212C83.7813 12.618 84.1773 11.991 83.8473 11.364C83.5503 10.803 82.8573 10.77 82.2633 11.265L73.6833 18.558L75.0693 11.199C75.2343 10.308 74.7063 9.615 73.8483 9.615C73.0893 9.615 72.3963 9.978 72.0333 10.374C65.8623 17.073 64.2123 19.086 63.3213 19.086C62.8923 19.086 62.7273 18.492 62.7273 17.7C62.7273 12.981 66.3573 8.724 71.8683 8.724C73.3533 8.724 74.3763 9.021 75.2343 9.351C75.5643 9.483 76.2243 9.417 76.5213 8.955C76.8513 8.46 76.8183 7.701 76.4553 7.404C75.3993 6.612 74.1123 6.381 71.9013 6.381C64.4763 6.381 60.3843 12.09 60.3843 17.7ZM79.2474 14.928C79.6104 15.786 80.4024 15.489 80.9304 15.027L88.3884 8.559L90.2034 9.351C90.7644 9.582 91.1604 10.11 90.6654 11.001L87.9264 15.984C86.2104 19.119 87.5964 21.429 90.5004 21.429C92.4804 21.429 94.2954 20.604 95.8134 19.284L102.908 13.212C103.568 12.651 103.964 11.991 103.634 11.364C103.337 10.803 102.644 10.77 102.05 11.265L94.1964 17.964C93.1404 18.789 91.9854 19.416 90.9624 19.416C89.4444 19.416 89.0484 18.294 89.8734 16.776L93.2724 10.473C94.1304 8.889 92.4474 7.8 90.7974 7.14L88.9824 6.414L88.3224 3.147C88.0914 2.025 85.7814 2.223 86.1444 3.774L86.9364 7.173L80.1384 13.014C79.5114 13.542 78.9834 14.301 79.2474 14.928ZM123.422 11.364C123.125 10.803 122.432 10.77 121.838 11.265L113.588 18.294C112.565 19.119 111.839 19.416 111.179 19.416C110.057 19.416 109.199 18.69 109.661 16.809L111.641 8.658H117.548C118.835 8.658 119.396 6.381 117.548 6.381H112.169C112.532 4.929 112.862 3.411 113.027 2.817C113.291 1.728 113.225 1.101 112.301 1.101C111.707 1.101 111.179 1.53 110.948 2.586L110.024 6.381H108.803C108.11 6.381 107.45 6.645 106.823 7.173L101.378 11.826C100.124 12.981 101.411 14.433 102.632 13.443L107.45 9.318C107.978 8.856 108.242 8.658 108.572 8.658H109.463L107.384 17.37C106.79 19.845 108.407 21.429 110.783 21.429C112.235 21.429 113.852 20.769 115.337 19.515L122.696 13.212C123.356 12.651 123.752 11.991 123.422 11.364ZM134.893 1.563C134.827 1.233 134.365 0.572999 133.606 0.770999L125.884 2.322C125.059 2.487 124.828 3.048 124.894 3.444C124.96 3.906 125.29 4.401 126.214 4.17L134.167 2.949C135.025 2.751 134.992 2.058 134.893 1.563ZM119.746 17.7C119.746 19.878 120.571 21.396 122.683 21.396C124.63 21.396 128.227 16.842 131.593 12.915L130.504 19.086C130.24 20.538 130.438 21.429 131.626 21.429C132.814 21.429 133.342 21.033 134.728 19.845L142.483 13.212C143.143 12.618 143.539 11.991 143.209 11.364C142.912 10.803 142.219 10.77 141.625 11.265L133.045 18.558L134.431 11.199C134.596 10.308 134.068 9.615 133.21 9.615C132.451 9.615 131.758 9.978 131.395 10.374C125.224 17.073 123.574 19.086 122.683 19.086C122.254 19.086 122.089 18.492 122.089 17.7C122.089 12.981 125.719 8.724 131.23 8.724C132.715 8.724 133.738 9.021 134.596 9.351C134.926 9.483 135.586 9.417 135.883 8.955C136.213 8.46 136.18 7.701 135.817 7.404C134.761 6.612 133.474 6.381 131.263 6.381C123.838 6.381 119.746 12.09 119.746 17.7ZM139.038 19.614C138.774 20.637 139.038 21.429 139.962 21.429C140.886 21.429 141.15 20.373 141.348 19.647L143.361 11.958C144.219 9.78 147.189 8.097 147.684 8.592C147.948 8.856 147.354 11.133 147.09 12.09L145.11 19.614C144.846 20.637 145.11 21.429 146.034 21.429C146.925 21.429 147.222 20.373 147.42 19.647L149.4 12.255C150.027 9.912 153.261 8.031 153.756 8.592C153.987 8.856 153.393 11.1 153.129 12.057L151.149 19.614C150.885 20.637 151.149 21.429 152.073 21.429C152.667 21.429 152.832 21.264 153.162 21L162.27 13.212C162.93 12.651 163.326 11.991 162.996 11.364C162.699 10.803 162.006 10.77 161.412 11.265L154.02 17.535L155.472 12.255C156.033 10.176 156.495 8.229 155.34 6.942C154.35 5.853 151.941 6.546 149.928 8.196C149.433 5.787 146.892 6.051 144.483 7.734C144.747 6.711 144.549 6.381 143.658 6.381C142.866 6.381 142.404 6.876 142.206 7.569L139.038 19.614ZM160.376 15.654C160.376 20.043 162.686 21.396 165.425 21.396C166.877 21.396 168.461 20.901 170.045 19.845C170.738 20.076 171.233 20.175 171.893 20.175C174.071 20.175 174.533 19.647 182.288 13.014C182.849 12.453 183.08 11.925 182.783 11.364C182.486 10.803 181.793 10.737 181.199 11.265C173.642 17.7 173.477 18.03 172.223 18.03C173.906 16.281 174.929 14.268 174.929 12.222C174.929 7.833 172.784 6.348 169.88 6.348C164.6 6.348 160.376 10.605 160.376 15.654ZM162.554 15.39C162.554 11.397 166.118 8.46 170.474 8.526C167.669 9.219 166.118 12.057 166.118 14.268C166.118 16.116 166.778 17.667 167.933 18.723C167.108 19.053 166.448 19.449 165.458 19.449C163.511 19.383 162.554 18.03 162.554 15.39ZM168.263 14.202C168.263 12.387 169.946 10.176 172.256 10.11C172.652 10.572 172.718 11.265 172.718 12.222C172.718 14.301 171.431 16.215 169.913 17.502C168.89 16.809 168.263 15.588 168.263 14.202ZM179.701 17.7C179.701 19.878 180.526 21.396 182.638 21.396C184.585 21.396 188.05 16.809 191.515 12.948L190.327 18.063C189.733 20.637 189.238 21.33 186.961 23.277C185.971 24.135 185.113 24.597 184.156 24.63C183.496 24.663 183.001 25.026 183.001 25.587C183.001 26.313 183.529 26.709 184.387 26.709C185.344 26.709 186.4 26.445 191.746 21.858L201.844 13.212C202.504 12.651 202.9 11.991 202.57 11.364C202.273 10.803 201.58 10.77 200.986 11.265L192.505 18.492L194.386 11.199C194.617 10.308 194.023 9.615 193.165 9.615C192.406 9.615 191.713 10.011 191.35 10.374C184.651 17.073 183.925 18.954 183.034 18.954C182.341 18.954 182.077 18.558 182.077 17.766C182.077 13.047 185.674 8.658 191.185 8.658C192.67 8.658 193.66 9.021 194.518 9.384C194.848 9.516 195.541 9.417 195.838 8.955C196.168 8.46 196.201 7.866 195.838 7.569C194.782 6.777 193.429 6.381 191.218 6.381C183.793 6.381 179.701 12.09 179.701 17.7ZM198.894 17.7C198.894 19.878 199.719 21.396 201.831 21.396C203.778 21.396 207.375 16.842 210.741 12.915L209.652 19.086C209.388 20.538 209.586 21.429 210.774 21.429C211.962 21.429 212.49 21.033 213.876 19.845L221.631 13.212C222.291 12.618 222.687 11.991 222.357 11.364C222.06 10.803 221.367 10.77 220.773 11.265L212.193 18.558L213.579 11.199C213.744 10.308 213.216 9.615 212.358 9.615C211.599 9.615 210.906 9.978 210.543 10.374C204.372 17.073 202.722 19.086 201.831 19.086C201.402 19.086 201.237 18.492 201.237 17.7C201.237 12.981 204.867 8.724 210.378 8.724C211.863 8.724 212.886 9.021 213.744 9.351C214.074 9.483 214.734 9.417 215.031 8.955C215.361 8.46 215.328 7.701 214.965 7.404C213.909 6.612 212.622 6.381 210.411 6.381C202.986 6.381 198.894 12.09 198.894 17.7ZM242.144 11.364C241.847 10.803 241.154 10.77 240.56 11.265L232.31 18.294C231.287 19.119 230.561 19.416 229.901 19.416C228.779 19.416 227.921 18.69 228.383 16.809L230.363 8.658H236.27C237.557 8.658 238.118 6.381 236.27 6.381H230.891C231.254 4.929 231.584 3.411 231.749 2.817C232.013 1.728 231.947 1.101 231.023 1.101C230.429 1.101 229.901 1.53 229.67 2.586L228.746 6.381H227.525C226.832 6.381 226.172 6.645 225.545 7.173L220.1 11.826C218.846 12.981 220.133 14.433 221.354 13.443L226.172 9.318C226.7 8.856 226.964 8.658 227.294 8.658H228.185L226.106 17.37C225.512 19.845 227.129 21.429 229.505 21.429C230.957 21.429 232.574 20.769 234.059 19.515L241.418 13.212C242.078 12.651 242.474 11.991 242.144 11.364ZM253.615 1.563C253.549 1.233 253.087 0.572999 252.328 0.770999L244.606 2.322C243.781 2.487 243.55 3.048 243.616 3.444C243.682 3.906 244.012 4.401 244.936 4.17L252.889 2.949C253.747 2.751 253.714 2.058 253.615 1.563ZM238.468 17.7C238.468 19.878 239.293 21.396 241.405 21.396C243.352 21.396 246.949 16.842 250.315 12.915L249.226 19.086C248.962 20.538 249.16 21.429 250.348 21.429C251.536 21.429 252.064 21.033 253.45 19.845L261.205 13.212C261.865 12.618 262.261 11.991 261.931 11.364C261.634 10.803 260.941 10.77 260.347 11.265L251.767 18.558L253.153 11.199C253.318 10.308 252.79 9.615 251.932 9.615C251.173 9.615 250.48 9.978 250.117 10.374C243.946 17.073 242.296 19.086 241.405 19.086C240.976 19.086 240.811 18.492 240.811 17.7C240.811 12.981 244.441 8.724 249.952 8.724C251.437 8.724 252.46 9.021 253.318 9.351C253.648 9.483 254.308 9.417 254.605 8.955C254.935 8.46 254.902 7.701 254.539 7.404C253.483 6.612 252.196 6.381 249.985 6.381C242.56 6.381 238.468 12.09 238.468 17.7ZM281.718 11.364C281.421 10.803 280.728 10.77 280.134 11.265L275.514 15.192C274.194 16.314 272.775 16.809 271.521 16.809C270.399 16.809 269.475 16.413 268.782 15.885L267.99 7.272L269.046 4.236C269.607 2.619 267.231 2.487 266.769 3.906L265.911 6.546L257.265 13.872C256.638 14.4 256.11 15.159 256.374 15.786C256.737 16.644 257.529 16.347 258.057 15.885L265.845 9.054L266.373 15.192C264.756 15.423 263.04 16.743 262.413 18.327C261.72 20.043 262.578 21.462 264.294 21.462C266.01 21.462 267.99 20.076 268.65 18.426V18.459C269.277 18.822 269.937 19.053 271.191 19.053C272.841 19.053 274.788 18.492 276.405 17.139L280.992 13.212C281.652 12.651 282.048 11.991 281.718 11.364ZM279.099 15.654C279.099 20.043 281.409 21.396 284.148 21.396C285.6 21.396 287.184 20.901 288.768 19.845C289.461 20.076 289.956 20.175 290.616 20.175C292.794 20.175 293.256 19.647 301.011 13.014C301.572 12.453 301.803 11.925 301.506 11.364C301.209 10.803 300.516 10.737 299.922 11.265C292.365 17.7 292.2 18.03 290.946 18.03C292.629 16.281 293.652 14.268 293.652 12.222C293.652 7.833 291.507 6.348 288.603 6.348C283.323 6.348 279.099 10.605 279.099 15.654ZM281.277 15.39C281.277 11.397 284.841 8.46 289.197 8.526C286.392 9.219 284.841 12.057 284.841 14.268C284.841 16.116 285.501 17.667 286.656 18.723C285.831 19.053 285.171 19.449 284.181 19.449C282.234 19.383 281.277 18.03 281.277 15.39ZM286.986 14.202C286.986 12.387 288.669 10.176 290.979 10.11C291.375 10.572 291.441 11.265 291.441 12.222C291.441 14.301 290.154 16.215 288.636 17.502C287.613 16.809 286.986 15.588 286.986 14.202ZM297.896 19.68C297.632 20.703 298.061 21.429 299.051 21.429C299.909 21.429 300.569 20.835 301.13 19.878C302.285 17.964 303.275 16.347 304.133 15.027L306.641 18.723C307.796 20.505 308.753 21.429 309.71 21.429C310.898 21.429 311.426 21.033 312.812 19.845L320.567 13.212C321.227 12.618 321.623 11.991 321.293 11.364C320.996 10.803 320.303 10.77 319.709 11.265C317.432 13.212 315.023 15.258 312.779 17.205C312.383 17.469 310.7 19.152 309.908 19.152C309.446 19.152 307.895 16.578 306.905 14.928C311.162 14.367 313.703 11.958 313.703 9.054C313.703 7.371 312.515 6.381 310.832 6.381C308.456 6.381 306.278 7.404 301.328 15.72L304.793 2.388C304.958 1.794 304.826 1.101 303.902 1.101C303.143 1.101 302.516 1.53 302.351 2.19L297.896 19.68ZM305.486 13.014C307.961 9.549 309.281 8.658 310.205 8.658C310.898 8.658 311.195 9.153 311.195 9.648C311.195 11.793 308.093 13.014 305.552 13.014H305.486Z" fill="#F53467"/>
</svg>

